<?xml version="1.0" encoding="utf-8"?>
<!-- Generator: Adobe Illustrator 26.2.1, SVG Export Plug-In . SVG Version: 6.00 Build 0)  -->
<svg version="1.1" id="Layer_1" xmlns="http://www.w3.org/2000/svg" xmlns:xlink="http://www.w3.org/1999/xlink" x="0px" y="0px"
	 viewBox="0 0 34 34" style="enable-background:new 0 0 34 34;" xml:space="preserve">
<style type="text/css">
	.st0{fill:#FFFFFF;}
</style>
<g id="a">
</g>
<g id="b">
	<g id="c">
		<rect class="st0" width="34" height="34"/>
	</g>
</g>
<path d="M12.4,11.4c-0.5,1-0.3,2.8-0.2,4.1c-0.5,0.3-1.1-0.2-1.5-0.2c-0.4,0-0.8,0.2-0.9,0.6c0,0.3,0.1,0.6,0.9,1
	c0.3,0.1,1.1,0.3,1.3,0.7c0.3,0.6-1.3,3.3-3.7,3.7c-0.2,0-0.3,0.2-0.3,0.4c0,0.7,1.7,1,2.4,1.1c0.1,0.1,0.1,0.5,0.2,0.8
	c0,0.1,0.2,0.3,0.4,0.3c0.4,0,1-0.3,2.1-0.1c1.1,0.2,2,1.7,3.9,1.7c1.8,0,2.8-1.5,3.8-1.7c0.6-0.1,1.1-0.1,1.6,0
	c0.4,0.1,0.7,0.1,0.8-0.3c0.1-0.3,0.2-0.7,0.2-0.8c0.7-0.1,2.4-0.4,2.4-1.1c0-0.2-0.1-0.4-0.3-0.4c-2.4-0.4-4-3.1-3.7-3.7
	c0.2-0.4,0.9-0.6,1.3-0.7c0.6-0.2,0.9-0.5,0.9-0.9c0-0.4-0.5-0.7-0.9-0.7c-0.4,0-1,0.5-1.4,0.2c0.1-1.3,0.2-3.1-0.2-4.1
	c-0.9-1.9-2.7-2.9-4.6-2.9C15.1,8.5,13.2,9.5,12.4,11.4z"/>
</svg>
