<svg version="1.1" id="Layer_1" xmlns="http://www.w3.org/2000/svg" xmlns:xlink="http://www.w3.org/1999/xlink" x="0px" y="0px" viewBox="0 0 36 36" style="enable-background:new 0 0 36 36" xml:space="preserve">
    <path fill="none" stroke="currentColor" stroke-width="2" d="M18,35c9.4,0,17-7.6,17-17S27.4,1,18,1S1,8.6,1,18S8.6,35,18,35"/>
    <path fill="currentColor" fill-rule="evenodd" clip-rule="evenodd" d="M25,23.3c-0.1,0-0.2,0-0.3,0.1l-0.3,0.1l-0.1,0l-0.2,0.1l0,0c-1.8,0.7-3.6,1.1-5.5,1.2h-0.2
	c-2.8,0-5.1-1.3-7.4-2.6c-0.1,0-0.2-0.1-0.2-0.1c-0.1,0-0.2,0-0.3,0.1c-0.1,0.1-0.1,0.2-0.1,0.3c0,0.1,0.1,0.3,0.2,0.4
	c2.2,1.9,4.5,3.6,7.7,3.6h0.2c2.2-0.1,4.2-0.7,6.1-1.8l0,0c0.2-0.1,0.5-0.3,0.7-0.5c0.1-0.1,0.2-0.3,0.2-0.4
	C25.5,23.5,25.3,23.3,25,23.3L25,23.3z"/>
    <path fill="currentColor" fill-rule="evenodd" clip-rule="evenodd" d="M25.5,21.2L25.5,21.2c0-0.1,0-0.3-0.1-0.4l0,0c-0.1-0.1-0.1-0.1-0.2-0.1c-0.3-0.1-0.7-0.2-1-0.1
	c-0.3,0-0.6,0-0.9,0.1l0,0l-0.3,0.1l0,0l-0.2,0.1l0,0c-0.2,0.1-0.4,0.2-0.6,0.3c-0.1,0.1-0.2,0.2-0.2,0.4c0,0.1,0,0.2,0.1,0.3
	c0.1,0.1,0.2,0.1,0.3,0.1h0.1c0.2,0,0.4-0.1,0.7-0.1c0.2,0,0.5,0,0.7,0c0.1,0,0.3,0,0.4,0h0.1l0,0c0,0,0,0.1,0,0.1
	c0,0.3-0.1,0.6-0.2,0.8c-0.1,0.3-0.2,0.6-0.3,0.9c0,0.1,0,0.1,0,0.2c0,0.1,0,0.2,0.1,0.3c0.1,0.1,0.2,0.1,0.3,0.1l0,0
	c0.1,0,0.2,0,0.3-0.1c0.7-0.7,1.1-1.6,1.1-2.6V21.2z"/>
    <path fill="currentColor" fill-rule="evenodd" clip-rule="evenodd" d="M19.9,14.2c-0.5,0-1,0.1-1.6,0.1c-0.8,0.1-1.7,0.3-2.4,0.6c-1.5,0.6-2.4,2-2.3,3.5c-0.2,1.7,1.1,3.2,2.8,3.3
	c0.2,0,0.3,0,0.5,0c0.5,0,1-0.1,1.5-0.2c0.8-0.3,1.5-0.8,2-1.4c0.3,0.5,0.8,1,1.2,1.4c0.2,0.1,0.4,0.1,0.5,0c0.5-0.4,1.2-1,1.6-1.4
	c0.1-0.2,0.1-0.4,0-0.6c-0.5-0.5-0.8-1.2-0.8-2v-3.4c0-1.4,0.1-2.7-0.9-3.7c-0.9-0.7-2.1-1.1-3.3-1.1h-0.4c-1.9,0.1-3.9,0.9-4.4,3.3
	c-0.1,0.2,0,0.4,0.2,0.4c0,0,0,0,0.1,0l2.1,0.3c0.2,0,0.3-0.2,0.4-0.4c0.2-0.8,0.8-1.3,1.6-1.3h0.1c0.5,0,0.9,0.2,1.2,0.6
	c0.2,0.5,0.3,1,0.3,1.6L19.9,14.2z M19.5,18.7c-0.2,0.5-0.7,0.9-1.2,1c-0.1,0-0.2,0-0.3,0c-0.8,0-1.3-0.6-1.3-1.6c0-1,0.7-1.8,1.6-2
	c0.5-0.1,1.1-0.1,1.6-0.1v0.4C20,17.2,19.8,18,19.5,18.7z"/>
</svg>
