<svg version="1.1" id="Layer_1" xmlns="http://www.w3.org/2000/svg" xmlns:xlink="http://www.w3.org/1999/xlink" x="0px" y="0px" viewBox="0 0 36 36" style="enable-background:new 0 0 36 36" xml:space="preserve">
    <path fill="none" stroke="currentColor" stroke-width="2" d="M18,35c9.4,0,17-7.6,17-17S27.4,1,18,1S1,8.6,1,18S8.6,35,18,35"/>
    <path fill="currentColor" d="M20.3,10.9l0.2-0.3l0.2-0.3l0.4-0.6c0-0.1,0-0.2,0-0.2s-0.2,0-0.2,0l-0.4,0.7l-0.2,0.3L20,10.8
	c-1.3-0.5-2.7-0.5-3.9,0l-0.2-0.3l-0.1-0.3l-0.4-0.7c0-0.1-0.2-0.1-0.2,0S15,9.7,15,9.8l0.4,0.6l0.2,0.3l0.1,0.3
	c-1.4,0.5-2.3,1.8-2.3,3.3h9.2C22.6,12.8,21.6,11.5,20.3,10.9z M16,12.9c-0.3,0-0.5-0.2-0.5-0.5c0-0.3,0.2-0.5,0.5-0.5
	c0.3,0,0.5,0.2,0.5,0.5c0,0,0,0,0,0C16.5,12.7,16.3,12.9,16,12.9z M20,12.9c-0.3,0-0.5-0.2-0.5-0.5S19.7,12,20,12
	c0.3,0,0.5,0.2,0.5,0.5c0,0,0,0,0,0C20.5,12.7,20.3,12.9,20,12.9z"/>
    <path fill="currentColor" d="M13.5,14.9L13.5,14.9l-0.1,7.2c0,0.6,0.4,1,1,1h0.8c0,0.1,0,0.2,0,0.3v2.1c0,0.6,0.4,1,1,1c0.6,0,1-0.4,1-1v-2
	c0-0.1,0-0.2,0-0.3h1.8c0,0.1,0,0.2,0,0.3v2.1c0,0.6,0.4,1,1,1s1-0.4,1-1v-2.1c0-0.1,0-0.2,0-0.3h0.8c0.6,0,1-0.4,1-1v-7.3H13.5z"/>
    <path fill="currentColor" d="M11.7,14.9c-0.6,0-1,0.4-1,1v4.2c0,0.6,0.4,1,1,1s1-0.4,1-1v-4.2C12.7,15.3,12.3,14.9,11.7,14.9z"/>
    <path fill="currentColor" d="M24.3,14.9c-0.6,0-1,0.4-1,1v4.2c0,0.6,0.4,1,1,1s1-0.4,1-1v-4.2C25.3,15.3,24.8,14.9,24.3,14.9z"/>
</svg>
