<svg version="1.1" id="Layer_1" xmlns="http://www.w3.org/2000/svg" xmlns:xlink="http://www.w3.org/1999/xlink" x="0px" y="0px" viewBox="0 0 36 36" style="enable-background:new 0 0 36 36" xml:space="preserve">
    <path fill="none" stroke="currentColor" stroke-width="2" d="M18,35c9.4,0,17-7.6,17-17S27.4,1,18,1S1,8.6,1,18S8.6,35,18,35"/>
    <path fill="currentColor" d="M17.3,13.8c0.3,0.5,0.5,1,0.5,1.6c0,0.6-0.1,1.1-0.5,1.6c-0.2,0.3-0.5,0.5-0.8,0.6c0.5,0.2,0.9,0.5,1.2,0.9
	c0.3,0.5,0.4,1,0.4,1.6c0,0.6-0.2,1.2-0.5,1.7c-0.4,0.7-1.1,1.2-1.9,1.3c-0.5,0.1-1,0.1-1.5,0.1H9.5V12.6h5.1
	C15.6,12.5,16.6,13,17.3,13.8z M11.6,14.5v2.3h2.6c0.4,0,0.8-0.1,1.1-0.3c0.3-0.2,0.5-0.6,0.4-0.9c0.1-0.4-0.2-0.8-0.6-1
	c-0.4-0.1-0.8-0.2-1.2-0.2L11.6,14.5z M11.6,18.5v2.8h2.6c0.4,0,0.7,0,1.1-0.2c0.5-0.3,0.7-0.8,0.7-1.3c0-0.5-0.2-0.9-0.7-1.1
	c-0.3-0.1-0.7-0.2-1.1-0.2H11.6z M24.5,15.5c0.5,0.2,1,0.6,1.3,1.1c0.3,0.5,0.5,1,0.6,1.6c0.1,0.5,0.1,1,0.1,1.5h-5.7
	c0,0.7,0.3,1.3,0.8,1.6c0.3,0.2,0.7,0.3,1.1,0.3c0.4,0,0.8-0.1,1.1-0.4c0.2-0.1,0.3-0.3,0.4-0.5h2.1c-0.1,0.5-0.4,1-0.8,1.4
	c-0.8,0.8-1.8,1.2-2.9,1.1c-1,0-2-0.4-2.7-1c-0.9-0.8-1.3-1.9-1.2-3.1c-0.1-1.1,0.3-2.3,1.1-3.1c0.7-0.7,1.7-1.1,2.8-1.1
	C23.3,15.1,23.9,15.3,24.5,15.5L24.5,15.5z M21.5,17.3c-0.3,0.3-0.5,0.8-0.5,1.2h3.5c0-0.5-0.2-0.9-0.5-1.2
	c-0.3-0.3-0.8-0.4-1.2-0.4C22.2,16.8,21.8,17,21.5,17.3L21.5,17.3z M24.9,13.1h-4.5v1.3h4.5V13.1z"/>
</svg>
