<svg version="1.1" id="Layer_1" xmlns="http://www.w3.org/2000/svg" xmlns:xlink="http://www.w3.org/1999/xlink" x="0px" y="0px" viewBox="0 0 36 36" style="enable-background:new 0 0 36 36" xml:space="preserve">
    <path fill="none" stroke="currentColor" stroke-width="2" d="M18,35c9.4,0,17-7.6,17-17S27.4,1,18,1S1,8.6,1,18S8.6,35,18,35"/>
    <path fill="currentColor" fill-rule="evenodd" clip-rule="evenodd" d="M26.4,16.6l-0.1-0.3L26,16.1c-0.3-0.3-1.9,0-2.3-0.4c-0.4-0.4-0.3-0.8-0.4-1.4c0-0.6-0.2-1.3-0.5-1.8
	c-0.9-1.5-2.4-2.6-4.1-2.9h-3.8c-3,0-5.4,2.4-5.4,5.4v6.3c0,3,2.4,5.4,5.4,5.4h6.2c3,0,5.4-2.4,5.4-5.4v-4.3L26.4,16.6z M15,13.9h3
	c0.6,0,1,0.5,1,1c0,0.6-0.5,1-1,1h-3c-0.6,0-1-0.5-1-1C14,14.4,14.4,13.9,15,13.9z M21,22.1h-6c-0.6,0-1-0.4-1-1s0.4-1,1-1h6
	c0.6,0,1,0.4,1,1S21.6,22.1,21,22.1z"/>
</svg>
