<svg version="1.1" id="Layer_1" xmlns="http://www.w3.org/2000/svg" xmlns:xlink="http://www.w3.org/1999/xlink" x="0px" y="0px" viewBox="0 0 36 36" style="enable-background:new 0 0 36 36" xml:space="preserve">
    <path fill="none" stroke="currentColor" stroke-width="2" d="M18,35c9.4,0,17-7.6,17-17S27.4,1,18,1S1,8.6,1,18S8.6,35,18,35"/>
    <path fill="currentColor" d="M12.1,13.2v2.3H9.5v5.2h4.2v-7.4H12.1z M12.1,19.2h-0.9v-2.3h0.9L12.1,19.2z"/>
    <path fill="currentColor" d="M17.2,15.4v5.2h2.6v0.8h-2.6v1.5h4.3v-7.4H17.2z M19.8,19.2h-0.9v-2.4h0.9V19.2z"/>
    <path fill="currentColor" d="M22.3,15.4v5.2h2.6v0.8h-2.6v1.5h4.3v-7.4H22.3z M24.9,19.2H24v-2.4h0.9L24.9,19.2z"/>
    <rect x="14.6" y="15.4" fill="currentColor" width="1.7" height="5.2"/>
    <rect x="14.6" y="13.3" fill="currentColor" width="1.7" height="1.4"/>
</svg>
