<svg version="1.1" id="Layer_1" xmlns="http://www.w3.org/2000/svg" xmlns:xlink="http://www.w3.org/1999/xlink" x="0px" y="0px" viewBox="0 0 36 36" style="enable-background:new 0 0 36 36" xml:space="preserve">
    <path fill="none" stroke="currentColor" stroke-width="2" d="M18,35c9.4,0,17-7.6,17-17S27.4,1,18,1S1,8.6,1,18S8.6,35,18,35"/>
    <path fill="currentColor" fill-rule="evenodd" clip-rule="evenodd" d="M20.4,16.3c-0.3-0.2-0.6-0.3-0.9-0.2c-0.5,0-1,0.2-1.4,0.6l0,0v-2.8h-1.7v2.4h0.1c0.5,0.2,0.9,0.5,1.2,1
	c0.2,0.5,0.2,0.9,0.2,1.4l0,0c0,0.1-0.1,0.2-0.2,0.2h-1.2V19h1.2c0.1,0,0.2,0.1,0.2,0.2c0,0,0,0,0,0c0,0.3-0.1,0.6-0.4,0.8
	c-0.2,0.2-0.5,0.4-0.9,0.6c0,0-0.1,0.1-0.1,0l0,0v0.9H18V21l0,0c0.3,0.5,0.8,0.8,1.4,0.7c1.3,0,1.6-1,1.6-1.9l0,0
	c-0.5-0.1-0.9-0.4-1.1-0.9l0,0c0-0.1-0.1-0.2-0.1-0.3c-0.1-0.2-0.1-0.5-0.1-0.7l0,0c0-0.3,0-0.7,0.2-1C20,16.6,20.2,16.4,20.4,16.3
	L20.4,16.3z M19.5,18.8c0,1.4-0.1,1.9-0.7,1.9s-0.7-0.6-0.7-1.9c0-1.1,0-1.8,0.7-1.8S19.5,17.8,19.5,18.8z"/>
    <path fill="currentColor" fill-rule="evenodd" clip-rule="evenodd" d="M17.6,19.3h-3c0,0.4-0.2,0.9-1.3,0.9c-1.3,0-1.4-0.9-1.4-1.4h5.8c0.2-1-0.3-1.9-1.3-2.3
	c-0.3-0.1-0.6-0.2-0.9-0.3c-0.7-0.1-1.5-0.2-2.3-0.2c-4,0-4.4,1.1-4.4,2.4c0,1.5,0.5,2.6,4.4,2.6c0.8,0,1.5-0.1,2.3-0.2
	c0.3-0.1,0.6-0.2,0.9-0.3l0,0C17.2,20.2,17.6,19.8,17.6,19.3L17.6,19.3z M13.3,16.8c1.4,0,1.4,0.7,1.4,1.1h-2.7
	C11.9,17.6,11.9,16.8,13.3,16.8L13.3,16.8z"/>
    <path fill="currentColor" fill-rule="evenodd" clip-rule="evenodd" d="M20.6,16.5c-0.4,0.3-0.7,0.9-0.6,1.4c-0.1,0.8,0.4,1.5,1.2,1.7c0.1,0,0.3,0,0.4,0c0.6,0,1.2-0.3,1.5-0.8l0,0
	l0.1,0.7h1.5c0-0.3-0.1-0.7-0.1-1v-1l-0.2-0.3l0,0l-1.6-3.1L22.8,14h-0.5c-0.5,0-1.1,0.1-1.5,0.4c-0.4,0.3-0.7,0.8-0.6,1.3h1.6
	c0-0.4,0-0.8,0.6-0.8s0.7,0.3,0.7,0.8v0.4C22.2,16,21.3,16.1,20.6,16.5L20.6,16.5z M22.2,18.7c-0.5,0-0.6-0.5-0.6-0.9
	c0-1,0.6-0.9,1.5-0.9C23,17.5,23.2,18.7,22.2,18.7L22.2,18.7z"/>
    <polygon fill="currentColor" fill-rule="evenodd" clip-rule="evenodd" points="28.2,13.3 26.5,16.6 25,13.3 22.6,13.3 23,14 24.6,17.1 25.3,18.3 25.3,21 27.5,21 27.5,18.3 
	30.4,13.3 28.2,13.3 "/>
</svg>
