<svg version="1.1" id="Layer_1" xmlns="http://www.w3.org/2000/svg" xmlns:xlink="http://www.w3.org/1999/xlink" x="0px" y="0px" viewBox="0 0 36 36" style="enable-background:new 0 0 36 36" xml:space="preserve">
    <path fill="none" stroke="currentColor" stroke-width="2" d="M18,35c9.4,0,17-7.6,17-17S27.4,1,18,1S1,8.6,1,18S8.6,35,18,35"/>
    <path fill="currentColor" d="M18.2,16.8v3h5c-0.5,2.3-2.6,3.9-4.9,3.7c-3-0.1-5.4-2.7-5.2-5.7c0.1-2.8,2.4-5.1,5.2-5.2
	c1.3,0,2.5,0.5,3.5,1.3l2.3-2.3c-1.6-1.5-3.6-2.3-5.8-2.3c-4.8,0-8.7,3.9-8.7,8.7c0,4.8,3.9,8.7,8.7,8.7c5,0,8.3-3.5,8.3-8.5
	c0-0.5,0-1-0.1-1.4L18.2,16.8z"/>
</svg>
