<svg version="1.1" id="Layer_1" xmlns="http://www.w3.org/2000/svg" xmlns:xlink="http://www.w3.org/1999/xlink" x="0px" y="0px" viewBox="0 0 36 36" style="enable-background:new 0 0 36 36" xml:space="preserve">
    <path fill="none" stroke="currentColor" stroke-width="2" d="M18,35c9.4,0,17-7.6,17-17S27.4,1,18,1S1,8.6,1,18S8.6,35,18,35"/>
    <polygon fill="currentColor" points="15.5,21.1 15.4,21.1 15.3,21.2 13,25.2 12.9,25.5 13.2,25.5 23.9,25.5 24,25.5 24.1,25.4 26.4,21.4 
	26.5,21.1 26.2,21.1 "/>
    <polygon fill="currentColor" points="21.4,20.1 21.5,20.2 21.6,20.2 26.2,20.2 26.5,20.2 26.4,19.9 21,10.6 20.9,10.5 20.9,10.5 16.2,10.6 
	15.9,10.6 16.1,10.8 "/>
    <polygon fill="currentColor" points="17.6,15.4 17.5,15.3 15.2,11.3 15.1,11 14.9,11.3 9.5,20.6 9.5,20.7 9.5,20.7 11.9,24.8 12,25 
	12.2,24.8 17.5,15.5 "/>
</svg>
