<svg version="1.1" id="Layer_1" xmlns="http://www.w3.org/2000/svg" xmlns:xlink="http://www.w3.org/1999/xlink" x="0px" y="0px" viewBox="0 0 36 36" style="enable-background:new 0 0 36 36" xml:space="preserve">
    <path fill="none" stroke="currentColor" stroke-width="2" d="M18,35c9.4,0,17-7.6,17-17S27.4,1,18,1S1,8.6,1,18S8.6,35,18,35"/>
    <path fill="currentColor" d="M23.2,9.5H12.8c-1.8,0-3.3,1.5-3.3,3.3l0,0v10.4c0,1.8,1.5,3.3,3.3,3.3h0h10.4c1.8,0,3.3-1.5,3.3-3.3v0V12.8
	C26.5,11,25,9.5,23.2,9.5C23.2,9.5,23.2,9.5,23.2,9.5z M24.2,11.5h0.4v2.9h-2.9v-2.9L24.2,11.5z M15.6,16.3c1-1.3,2.9-1.6,4.2-0.6
	s1.6,2.9,0.6,4.2c-1,1.3-2.9,1.6-4.2,0.6C15.4,19.9,15,19,15,18C15,17.4,15.2,16.8,15.6,16.3L15.6,16.3z M24.8,23.3
	c0,0.9-0.7,1.6-1.6,1.6H12.8c-0.9,0-1.6-0.7-1.6-1.6v-7h2.5c-1,2.4,0.2,5.1,2.6,6.1s5.1-0.2,6.1-2.6c0.5-1.1,0.5-2.4,0-3.5h2.5
	L24.8,23.3z"/>
</svg>
