<svg version="1.1" id="Layer_1" xmlns="http://www.w3.org/2000/svg" xmlns:xlink="http://www.w3.org/1999/xlink" x="0px" y="0px"
	 viewBox="0 0 36 36" style="enable-background:new 0 0 36 36;" xml:space="preserve">
<path fill="none" stroke="currentColor" stroke-width="2" d="M18,35c9.4,0,17-7.6,17-17S27.4,1,18,1S1,8.6,1,18S8.6,35,18,35"/>
<path fill="currentColor" d="M18,13.5c-2.5,0-4.5,2-4.5,4.5s2,4.5,4.5,4.5s4.5-2,4.5-4.5l0,0C22.5,15.5,20.5,13.5,18,13.5L18,13.5z M18,20.9
	c-1.6,0-2.9-1.3-2.9-2.9c0-1.6,1.3-2.9,2.9-2.9c1.6,0,2.9,1.3,2.9,2.9l0,0C20.9,19.6,19.6,20.9,18,20.9z M23.7,13.4c0,0.6-0.5,1-1,1
	c-0.6,0-1-0.5-1-1s0.5-1,1-1l0,0C23.2,12.3,23.7,12.8,23.7,13.4L23.7,13.4L23.7,13.4z M26.6,14.4c0-1.4-0.5-2.7-1.4-3.6
	c-1-0.9-2.3-1.4-3.6-1.4c-1.4-0.1-5.7-0.1-7.2,0c-1.4,0-2.7,0.5-3.6,1.4c-0.9,1-1.4,2.3-1.4,3.6c-0.1,1.4-0.1,5.7,0,7.2
	c0,1.4,0.5,2.7,1.4,3.6c1,0.9,2.3,1.4,3.6,1.4c1.4,0.1,5.7,0.1,7.2,0c1.4,0,2.7-0.5,3.6-1.4c0.9-1,1.4-2.3,1.4-3.6
	C26.7,20.1,26.7,15.8,26.6,14.4L26.6,14.4z M24.8,23.1c-0.3,0.8-0.9,1.4-1.7,1.7c-1.1,0.5-3.9,0.3-5.1,0.3c-1.3,0-4,0.1-5.1-0.3
	c-0.8-0.3-1.4-0.9-1.7-1.7c-0.5-1.1-0.3-3.9-0.3-5.1s-0.1-4,0.3-5.1c0.3-0.8,0.9-1.4,1.6-1.7c1.2-0.4,3.9-0.3,5.2-0.3
	c1.3,0,4-0.1,5.1,0.3c0.8,0.3,1.4,0.9,1.7,1.7c0.5,1.1,0.3,3.9,0.3,5.1S25.2,22,24.8,23.1L24.8,23.1z"/>
</svg>
