<svg version="1.1" id="Layer_1" xmlns="http://www.w3.org/2000/svg" xmlns:xlink="http://www.w3.org/1999/xlink" x="0px" y="0px" viewBox="0 0 36 36" style="enable-background:new 0 0 36 36" xml:space="preserve">
    <path fill="none" stroke="currentColor" stroke-width="2" d="M18,35c9.4,0,17-7.6,17-17S27.4,1,18,1S1,8.6,1,18S8.6,35,18,35"/>
    <path fill="currentColor" fill-rule="evenodd" clip-rule="evenodd" d="M25.3,22c-0.3,0.7-0.7,1.4-1.1,2c-0.7,1.1-1.7,2.5-3,2.5s-1.4-0.7-2.9-0.7s-1.8,0.7-2.9,0.7s-2.2-1.2-2.9-2.3
	c-2-3-2.2-6.6-1-8.6c0.8-1.2,2.1-2,3.6-2.1c1.3,0,2.2,0.7,3.3,0.7s1.7-0.7,3.3-0.7c1.3,0.1,2.5,0.7,3.3,1.7c-1.8,1-2.5,3.3-1.5,5.1
	C23.8,21.1,24.5,21.7,25.3,22L25.3,22z M20.4,12.3c0.6-0.8,0.9-1.8,0.8-2.8c-1,0.1-1.9,0.6-2.6,1.4c-0.7,0.7-1,1.7-0.9,2.7
	C18.8,13.6,19.8,13.1,20.4,12.3z"/>
</svg>
