<svg version="1.1" id="Layer_1" xmlns="http://www.w3.org/2000/svg" xmlns:xlink="http://www.w3.org/1999/xlink" x="0px" y="0px" viewBox="0 0 36 36" style="enable-background:new 0 0 36 36" xml:space="preserve">
    <path fill="none" stroke="currentColor" stroke-width="2" d="M18,35c9.4,0,17-7.6,17-17S27.4,1,18,1S1,8.6,1,18S8.6,35,18,35"/>
    <path fill="currentColor" d="M13.2,25.8H9.9V15.2h3.3V25.8z M11.5,13.9L11.5,13.9c-1,0.1-1.9-0.7-2-1.7c0-0.1,0-0.1,0-0.2
	c0-1,0.8-1.9,1.9-1.8c0,0,0.1,0,0.1,0c1-0.1,1.9,0.6,2,1.6c0.1,1-0.6,1.9-1.6,2C11.8,13.9,11.6,13.9,11.5,13.9z M26.5,25.8h-3.8
	v-5.5c0-1.4-0.6-2.4-1.9-2.4c-0.8,0-1.5,0.5-1.8,1.3C19,19.5,19,19.8,19,20.1v5.7h-3.7c0,0,0-9.7,0-10.6H19v1.7
	c0.6-1.2,2-1.9,3.3-1.8c2.4,0,4.2,1.5,4.2,4.8L26.5,25.8z"/>
</svg>
