<svg version="1.1" id="Layer_1" xmlns="http://www.w3.org/2000/svg" xmlns:xlink="http://www.w3.org/1999/xlink" x="0px" y="0px" viewBox="0 0 36 36" style="enable-background:new 0 0 36 36" xml:space="preserve">
    <path fill="none" stroke="currentColor" stroke-width="2" d="M18,35c9.4,0,17-7.6,17-17S27.4,1,18,1S1,8.6,1,18S8.6,35,18,35"/>
    <path fill="currentColor" d="M18.1,9.5c-4.7,0-8.5,3.8-8.5,8.5c0,3.4,2,6.4,5.1,7.8c0-0.7,0-1.3,0.1-2l1.1-4.6c-0.2-0.4-0.3-0.9-0.3-1.4
	c0-1.3,0.7-2.2,1.6-2.2c0.6,0,1.1,0.5,1.2,1.1c0,0.1,0,0.1,0,0.2c-0.2,1-0.4,2-0.8,3c-0.2,0.7,0.3,1.4,1,1.6c0.1,0,0.3,0,0.4,0
	c1.6,0,2.7-2.1,2.7-4.5c0-1.9-1.3-3.3-3.5-3.3c-2.2-0.1-4.1,1.6-4.2,3.8c0,0.1,0,0.2,0,0.3c0,0.6,0.2,1.2,0.6,1.7
	c0.1,0.1,0.2,0.3,0.1,0.5l-0.2,0.7c0,0.2-0.2,0.3-0.3,0.2c0,0-0.1,0-0.1,0c-1.2-0.6-1.9-1.9-1.7-3.3c0-2.4,2-5.3,6.1-5.3
	c2.8-0.2,5.2,2,5.4,4.8c0,0,0,0.1,0,0.1c0,3.3-1.9,5.8-4.6,5.8c-0.8,0-1.6-0.3-2.1-0.9c0,0-0.5,2-0.6,2.3c-0.2,0.6-0.5,1.3-0.9,1.8
	c4.5,1.2,9.2-1.4,10.4-6c1.2-4.5-1.4-9.2-6-10.4C19.5,9.6,18.8,9.5,18.1,9.5"/>
</svg>
