<svg version="1.1" id="Layer_1" xmlns="http://www.w3.org/2000/svg" xmlns:xlink="http://www.w3.org/1999/xlink" x="0px" y="0px" viewBox="0 0 36 36" style="enable-background:new 0 0 36 36" xml:space="preserve">
    <path fill="none" stroke="currentColor" stroke-width="2" d="M18,35c9.4,0,17-7.6,17-17S27.4,1,18,1S1,8.6,1,18S8.6,35,18,35"/>
    <path fill="currentColor" d="M13.4,22.6c0.9,0.9,0.9,2.3,0,3.2c0,0,0,0,0,0l0,0c-0.9,0.9-2.3,0.9-3.2,0c-0.9-0.9-0.9-2.3,0-3.2l0,0l0,0
	C11,21.8,12.5,21.8,13.4,22.6C13.4,22.6,13.4,22.6,13.4,22.6z M13.4,22.6L13.4,22.6z M10.2,25.8L10.2,25.8z M9.5,15.3v3.3
	c4.4,0,8,3.6,8,8h3.3C20.8,20.3,15.7,15.3,9.5,15.3C9.5,15.3,9.5,15.3,9.5,15.3z M9.5,9.5v3.3c7.6,0,13.7,6.2,13.8,13.7h3.3
	C26.5,17.1,18.9,9.5,9.5,9.5z"/>
</svg>
