<svg version="1.1" id="Layer_1" xmlns="http://www.w3.org/2000/svg" xmlns:xlink="http://www.w3.org/1999/xlink" x="0px" y="0px" viewBox="0 0 36 36" style="enable-background:new 0 0 36 36" xml:space="preserve">
    <path fill="none" stroke="currentColor" stroke-width="2" d="M18,35c9.4,0,17-7.6,17-17S27.4,1,18,1S1,8.6,1,18S8.6,35,18,35"/>
    <path fill="currentColor" d="M26,19.8c1-4.4-1.8-8.7-6.2-9.7c-1-0.2-2.1-0.2-3.1-0.1c-2.2-1.4-5.1-0.7-6.5,1.5c-0.9,1.5-1,3.4-0.1,4.9
	c-0.9,4.4,1.9,8.7,6.3,9.6c1,0.2,2.1,0.2,3.1,0c2.3,1.2,5.1,0.4,6.4-1.9C26.7,22.8,26.7,21.2,26,19.8z M22.3,22
	c-0.4,0.6-1,1-1.6,1.3c-0.8,0.3-1.7,0.5-2.5,0.5c-1,0-2-0.2-2.9-0.6c-0.5-0.3-1-0.7-1.3-1.2c-0.3-0.4-0.5-0.9-0.5-1.5
	c0-0.3,0.1-0.6,0.3-0.8c0.2-0.2,0.5-0.3,0.9-0.3c0.3,0,0.5,0.1,0.7,0.3c0.2,0.2,0.4,0.4,0.5,0.7c0.1,0.3,0.3,0.6,0.5,0.8
	c0.2,0.2,0.4,0.4,0.7,0.5c0.4,0.2,0.8,0.2,1.2,0.2c0.6,0,1.1-0.1,1.6-0.4c0.4-0.2,0.6-0.6,0.6-1c0-0.3-0.1-0.6-0.3-0.8
	c-0.3-0.2-0.5-0.4-0.9-0.5c-0.4-0.1-0.9-0.2-1.5-0.4c-0.7-0.1-1.4-0.4-2.1-0.6c-0.5-0.2-1-0.6-1.4-1c-0.4-0.5-0.5-1-0.5-1.6
	c0-0.6,0.2-1.2,0.6-1.6c0.4-0.5,1-0.9,1.6-1.1c0.7-0.3,1.5-0.4,2.3-0.4c0.6,0,1.3,0.1,1.9,0.3c0.5,0.1,0.9,0.4,1.3,0.7
	c0.3,0.2,0.6,0.5,0.8,0.9c0.2,0.3,0.2,0.6,0.3,0.9c0,0.6-0.5,1.1-1.2,1.1c-0.3,0-0.5-0.1-0.7-0.2c-0.2-0.2-0.4-0.4-0.5-0.6
	c-0.2-0.3-0.4-0.7-0.7-0.9c-0.4-0.2-0.9-0.3-1.4-0.3c-0.5,0-1,0.1-1.4,0.4c-0.3,0.2-0.5,0.4-0.5,0.8c0,0.2,0.1,0.3,0.2,0.5
	c0.1,0.2,0.3,0.3,0.5,0.4c0.2,0.1,0.4,0.2,0.6,0.3l1.1,0.3c0.7,0.1,1.3,0.3,1.8,0.5c0.5,0.1,1,0.4,1.4,0.6c0.4,0.3,0.7,0.6,0.9,1
	c0.2,0.4,0.3,0.9,0.3,1.4C22.8,20.8,22.6,21.5,22.3,22z"/>
</svg>
