<?xml version="1.0" encoding="utf-8"?>
<!-- Generator: Adobe Illustrator 26.2.1, SVG Export Plug-In . SVG Version: 6.00 Build 0)  -->
<svg version="1.1" id="Layer_1" xmlns="http://www.w3.org/2000/svg" xmlns:xlink="http://www.w3.org/1999/xlink" x="0px" y="0px"
	 viewBox="0 0 36 36" style="enable-background:new 0 0 36 36;" xml:space="preserve">
<style type="text/css">
	.st0{fill:none;stroke:#000000;stroke-width:2;}
</style>
<path class="st0" d="M18,35c9.4,0,17-7.6,17-17S27.4,1,18,1S1,8.6,1,18S8.6,35,18,35"/>
<path d="M13.9,13.1c-0.4,0.9-0.2,2.5-0.2,3.6c-0.4,0.2-1-0.2-1.3-0.2c-0.3,0-0.7,0.2-0.8,0.5c0,0.2,0.1,0.6,0.8,0.8
	c0.3,0.1,1,0.2,1.1,0.6c0.2,0.5-1.1,2.9-3.2,3.2c-0.2,0-0.3,0.2-0.3,0.3c0,0.6,1.5,0.9,2.1,1c0.1,0.1,0.1,0.5,0.2,0.7
	c0,0.1,0.1,0.3,0.4,0.3c0.3,0,0.9-0.3,1.8-0.1c0.9,0.2,1.8,1.5,3.4,1.5c1.5,0,2.5-1.3,3.4-1.5c0.5-0.1,1-0.1,1.4,0
	c0.3,0.1,0.6,0.1,0.7-0.2c0.1-0.3,0.1-0.7,0.2-0.7c0.6-0.1,2.1-0.3,2.1-1c0-0.2-0.1-0.3-0.3-0.3c-2.1-0.3-3.5-2.7-3.2-3.2
	c0.2-0.4,0.8-0.5,1.1-0.6c0.5-0.2,0.8-0.5,0.8-0.8c0-0.4-0.5-0.6-0.8-0.6c-0.3,0-0.8,0.4-1.2,0.2c0.1-1.1,0.2-2.7-0.2-3.6
	c-0.7-1.7-2.4-2.5-4.1-2.5C16.3,10.6,14.7,11.4,13.9,13.1z"/>
</svg>
