<svg version="1.1" id="Layer_1" xmlns="http://www.w3.org/2000/svg" xmlns:xlink="http://www.w3.org/1999/xlink" x="0px" y="0px" viewBox="0 0 36 36" style="enable-background:new 0 0 36 36" xml:space="preserve">
    <path fill="none" stroke="currentColor" stroke-width="2" d="M18,35c9.4,0,17-7.6,17-17S27.4,1,18,1S1,8.6,1,18S8.6,35,18,35"/>
    <path fill="currentColor" d="M18.7,22.9c0-1.6-1.2-2.9-2.8-2.9h-0.6c-0.6,0-1-0.4-1.1-1c0-0.6,0.4-1,1-1h3.9c0.6,0,1,0.4,1,1v3.6
	c0,1.6,1.3,2.9,2.9,3c0,0,0.1,0,0.1,0h0.5c1.6,0,2.9-1.3,2.9-2.9V10.4h-0.2h-1.7v12.2c0,0.6-0.4,1-1,1h-0.5c-0.6,0-1-0.4-1-1V19
	c0-1.6-1.3-2.9-2.9-2.9h-4c-1.6,0-2.9,1.2-2.9,2.8c0,0,0,0,0,0.1c0,1.6,1.3,2.9,2.9,2.9h0.6c0.5,0,0.9,0.4,1,0.9
	c-0.1,0.5-0.5,0.9-1.1,0.9H9.5v1.9h6.2C17.3,25.6,18.6,24.4,18.7,22.9z"/>
</svg>
