<svg version="1.1" id="Layer_1" xmlns="http://www.w3.org/2000/svg" xmlns:xlink="http://www.w3.org/1999/xlink" x="0px" y="0px"
	 viewBox="0 0 34 34" style="enable-background:new 0 0 34 34;" xml:space="preserve">
<path fill="none" stroke="currentColor" stroke-width="2" d="M17,33c8.8,0,16-7.2,16-16S25.9,1,17,1S1,8.2,1,17S8.2,33,17,33"/>
<path fill="currentColor" d="M17.4,8.3c1,0,1.9,0,2.8,0c0,1.1,0.5,2.2,1.3,3c0.9,0.8,1.9,1.2,3.1,1.3v2.9c-1.1,0-2.1-0.3-3.1-0.7
	c-0.4-0.2-0.8-0.4-1.2-0.7c0,2.1,0,4.2,0,6.4c-0.1,1-0.4,2-1,2.9c-1,1.4-2.6,2.3-4.3,2.3c-1,0-2.1-0.2-3-0.8
	c-1.5-0.9-2.5-2.4-2.7-4.1c0-0.4,0-0.7,0-1.1c0.3-3,3-5.2,6-4.9c0.1,0,0.2,0,0.4,0.1c0,1.1,0,2.2,0,3.2c-1.3-0.5-2.7,0.2-3.2,1.5
	l0,0c-0.1,0.4-0.1,0.8-0.1,1.2c0.2,1.2,1.3,2.1,2.6,2.1c0.8,0,1.6-0.5,2-1.2c0.2-0.2,0.3-0.5,0.3-0.8c0.1-1.3,0-2.6,0-3.9
	C17.4,14.2,17.4,11.2,17.4,8.3L17.4,8.3z"/>
</svg>
