<svg version="1.1" id="Layer_1" xmlns="http://www.w3.org/2000/svg" xmlns:xlink="http://www.w3.org/1999/xlink" x="0px" y="0px" viewBox="0 0 36.1 36.1" style="enable-background:new 0 0 36.1 36.1" xml:space="preserve">
    <path fill="none" stroke="currentColor" stroke-width="2" d="M18,35c9.4,0,17-7.6,17-17S27.4,1,18,1S1,8.6,1,18S8.6,35,18,35"/>
    <path fill="currentColor" fill-rule="evenodd" clip-rule="evenodd" d="M20.3,12.6c0.5,0.1,1,0.2,1.5,0.4c0.9,0.3,1.7,0.6,2.4,1.1c0.1,0,0.1,0,0.2,0h2.7h0.2l0,0l-0.1,0.2
	c-0.3,0.5-0.6,1-0.7,1.5c0,0.1,0,0.1,0,0.2c0.9,1.1,1.1,2.6,0.7,3.9c-0.3,1.2-1,2.2-2,2.8c-0.7,0.5-1.6,0.7-2.5,0.7
	c-0.4,0-0.7-0.1-1.1-0.1c-0.9-0.2-1.6-0.7-2.2-1.3l-0.2-0.3l-1,1.5c-0.3-0.5-0.6-1-1-1.4l0,0l0,0c-0.7,0.9-1.7,1.4-2.8,1.6
	c-2.5,0.4-4.8-1.3-5.2-3.8c-0.1-0.6-0.1-1.2,0.1-1.8C9.3,17,9.6,16.5,9.9,16c0,0,0-0.1,0-0.1c-0.1-0.5-0.4-1-0.6-1.4
	c-0.1-0.1-0.2-0.2-0.2-0.3l0,0h2.8c0,0,0.1,0,0.1,0c0.6-0.4,1.3-0.8,2.1-1c0.5-0.2,1.1-0.3,1.6-0.4c0.5-0.1,1-0.2,1.6-0.3
	C18.2,12.4,19.2,12.5,20.3,12.6L20.3,12.6z M19.1,18.7c0,2,1.6,3.7,3.6,3.7c2,0,3.7-1.6,3.7-3.6s-1.6-3.7-3.6-3.7c0,0-0.1,0-0.1,0
	C20.7,15.1,19.1,16.7,19.1,18.7z M13.6,15.1c-2,0-3.6,1.6-3.6,3.7s1.6,3.6,3.7,3.6c2,0,3.6-1.6,3.6-3.6
	C17.3,16.7,15.7,15.1,13.6,15.1C13.7,15.1,13.7,15.1,13.6,15.1z M13.8,14.1c2.2,0.1,4.1,1.8,4.4,4c0.2-1.1,0.7-2,1.5-2.8
	c0.8-0.7,1.8-1.2,2.9-1.2c-1.3-0.6-2.7-0.8-4.1-0.8C16.9,13.2,15.3,13.5,13.8,14.1L13.8,14.1z"/>
    <path fill="currentColor" fill-rule="evenodd" clip-rule="evenodd" d="M22.8,16.5c1.2,0,2.3,1,2.2,2.3S24,21,22.8,21c-1.2,0-2.2-1-2.3-2.3C20.5,17.5,21.5,16.5,22.8,16.5
	C22.7,16.5,22.8,16.5,22.8,16.5z M24.3,18.7c0-0.8-0.6-1.5-1.5-1.5c0,0,0,0,0,0c-0.8,0-1.5,0.7-1.5,1.5c0,0.8,0.7,1.5,1.5,1.5
	C23.6,20.2,24.2,19.5,24.3,18.7C24.3,18.7,24.3,18.7,24.3,18.7z"/>
    <path fill="currentColor" fill-rule="evenodd" clip-rule="evenodd" d="M13.6,16.5c1.2,0,2.3,1,2.3,2.2c0,1.2-1,2.3-2.2,2.3s-2.3-1-2.3-2.2C11.4,17.5,12.3,16.5,13.6,16.5z M15.1,18.7
	c0-0.8-0.7-1.5-1.5-1.5c0,0,0,0,0,0c-0.8,0-1.5,0.7-1.5,1.5c0,0.8,0.7,1.5,1.5,1.5C14.4,20.2,15.1,19.5,15.1,18.7z"/>
    <path fill="currentColor" fill-rule="evenodd" clip-rule="evenodd" d="M22.8,17.9c0.4,0,0.7,0.3,0.8,0.7c0,0,0,0,0,0c0,0.4-0.3,0.7-0.7,0.8c-0.4,0-0.8-0.3-0.8-0.8
	S22.4,17.9,22.8,17.9L22.8,17.9z"/>
    <path fill="currentColor" fill-rule="evenodd" clip-rule="evenodd" d="M13.6,17.9c0.4,0,0.8,0.3,0.8,0.8c0,0.4-0.3,0.8-0.8,0.8c-0.4,0-0.8-0.3-0.8-0.8c0,0,0,0,0,0
	C12.8,18.3,13.2,17.9,13.6,17.9C13.6,17.9,13.6,17.9,13.6,17.9z"/>
</svg>
