<svg xmlns="http://www.w3.org/2000/svg" viewBox="0 0 34.02 34.02">
    <path fill="none" stroke="#FFF" stroke-width="2px" d="M18,35A17,17,0,1,0,1,18,17,17,0,0,0,18,35"/>
    <path fill="#fff" fill-rule="evenodd" d="M19.07,11.75a9.47,9.47,0,0,1,1.51.35A10.44,10.44,0,0,1,23,13.22a.37.37,0,0,0,.18,0h2.7l.22,0v0l-.13.19a5.93,5.93,0,0,0-.72,1.5.18.18,0,0,0,0,.16A4.48,4.48,0,0,1,26,19a4.42,4.42,0,0,1-2,2.78,4.54,4.54,0,0,1-2.45.71,4,4,0,0,1-1.09-.15A4.53,4.53,0,0,1,18.22,21L18,20.69l-1,1.46c-.33-.49-.65-1-1-1.44l0,0,0,0a4.56,4.56,0,0,1-2.84,1.61,4.6,4.6,0,0,1-5.22-3.83A4.33,4.33,0,0,1,8,16.72a4.53,4.53,0,0,1,.72-1.56.19.19,0,0,0,0-.13,5,5,0,0,0-.65-1.38c-.07-.11-.15-.21-.23-.32v0h2.81a.25.25,0,0,0,.12,0,9.56,9.56,0,0,1,2.06-1,11.52,11.52,0,0,1,1.6-.44A14.43,14.43,0,0,1,16,11.61a13.26,13.26,0,0,1,3,.14Zm-1.15,6.08a3.66,3.66,0,1,0,3.58-3.64,3.66,3.66,0,0,0-3.58,3.64Zm-5.48-3.65a3.65,3.65,0,1,0,3.66,3.67,3.65,3.65,0,0,0-3.66-3.67Zm.18-1a4.67,4.67,0,0,1,4.39,4,4.62,4.62,0,0,1,1.46-2.75,4.69,4.69,0,0,1,2.86-1.22,10.33,10.33,0,0,0-4.07-.84,11.16,11.16,0,0,0-4.64.82Z"/>
    <path fill="#fff" fill-rule="evenodd" d="M21.57,15.53a2.26,2.26,0,1,1-2.27,2.26,2.24,2.24,0,0,1,2.27-2.26Zm1.48,2.26a1.47,1.47,0,0,0-1.47-1.48,1.48,1.48,0,1,0,1.47,1.48Z"/>
    <path fill="#fff" fill-rule="evenodd" d="M12.39,15.53a2.26,2.26,0,0,1,.1,4.52,2.26,2.26,0,1,1-.1-4.52Zm1.47,2.25a1.48,1.48,0,0,0-1.49-1.47,1.48,1.48,0,1,0,1.49,1.47Z"/>
    <path fill="#fff" fill-rule="evenodd" d="M21.57,17a.74.74,0,0,1,.75.75.75.75,0,0,1-.74.75.75.75,0,1,1,0-1.5Z"/>
    <path fill="#fff" fill-rule="evenodd" d="M12.38,17a.76.76,0,1,1-.76.75.75.75,0,0,1,.76-.75Z"/>
</svg>