<svg version="1.1" id="Layer_1" xmlns="http://www.w3.org/2000/svg" xmlns:xlink="http://www.w3.org/1999/xlink" x="0px" y="0px" viewBox="0 0 36 36" style="enable-background:new 0 0 36 36" xml:space="preserve">
    <path fill="none" stroke="currentColor" stroke-width="2" d="M18,35c9.4,0,17-7.6,17-17S27.4,1,18,1S1,8.6,1,18S8.6,35,18,35"/>
    <path fill="currentColor" d="M26.5,13.3c-0.6,0.3-1.3,0.5-2,0.6c0.7-0.4,1.3-1.1,1.5-1.9c-0.7,0.4-1.4,0.7-2.2,0.9c-1.3-1.4-3.5-1.6-4.9-0.3
	c-1,0.9-1.4,2.2-1.1,3.5c-2.8-0.1-5.4-1.5-7.2-3.6c-0.9,1.6-0.5,3.6,1.1,4.7c-0.6,0-1.1-0.2-1.6-0.4l0,0c0,1.7,1.2,3.1,2.8,3.5
	c-0.3,0.1-0.6,0.1-0.9,0.1c-0.2,0-0.4,0-0.7-0.1c0.5,1.4,1.8,2.4,3.3,2.4c-1.5,1.1-3.3,1.7-5.2,1.4c4.6,3,10.8,1.6,13.7-3
	c1-1.6,1.6-3.5,1.6-5.4c0-0.1,0-0.3,0-0.4C25.5,14.6,26.1,14,26.5,13.3"/>
</svg>
