<svg version="1.1" id="Layer_1" xmlns="http://www.w3.org/2000/svg" xmlns:xlink="http://www.w3.org/1999/xlink" x="0px" y="0px" viewBox="0 0 36 36" style="enable-background:new 0 0 36 36" xml:space="preserve">
    <path fill="none" stroke="currentColor" stroke-width="2" d="M18,35c9.4,0,17-7.6,17-17S27.4,1,18,1S1,8.6,1,18S8.6,35,18,35"/>
    <path fill="currentColor" d="M26.5,14.8c-0.1,1.7-1.2,3.9-3.5,6.8c-2.3,3-4.3,4.5-5.9,4.5c-1,0-1.8-0.9-2.5-2.7l-1.4-5
	c-0.5-1.8-1.1-2.8-1.6-2.8c-0.5,0.2-0.9,0.4-1.3,0.8l-0.8-1c0.8-0.7,1.7-1.5,2.5-2.2c0.7-0.7,1.6-1.3,2.5-1.5
	c1.3-0.1,2.1,0.8,2.4,2.7c0.3,2.1,0.6,3.4,0.7,3.9c0.4,1.7,0.8,2.6,1.3,2.6c0.4,0,0.9-0.6,1.6-1.7c0.6-0.8,0.9-1.6,1.1-2.6
	c0.1-1-0.3-1.4-1.1-1.4c-0.4,0-0.9,0.1-1.3,0.3c0.8-2.7,2.4-4.1,4.8-4C25.8,11.5,26.6,12.6,26.5,14.8z"/>
</svg>
