<svg version="1.1" id="Layer_1" xmlns="http://www.w3.org/2000/svg" xmlns:xlink="http://www.w3.org/1999/xlink" x="0px" y="0px" viewBox="0 0 36 36" style="enable-background:new 0 0 36 36" xml:space="preserve">
    <path fill="none" stroke="currentColor" stroke-width="2" d="M18,35c9.4,0,17-7.6,17-17S27.4,1,18,1S1,8.6,1,18S8.6,35,18,35"/>
    <path fill="currentColor" d="M15.7,23.6c-0.9-0.7-2-1.1-3.1-1.1c-1,0-2.1,0.3-3,0.7l1.6-5.5l0.5-0.2c0.7-0.3,1.5-0.4,2.3-0.5h0.3
	c0.8,0,1.6,0.2,2.3,0.6c0.3,0.1,0.5,0.3,0.7,0.4L15.7,23.6"/>
    <path fill="currentColor" d="M19.9,25.3c-1.1-0.1-2.2-0.5-3.2-1.1l1.6-5.5c1,0.7,2.2,1.1,3.4,1.1c1,0,2-0.2,3-0.6l-1.6,5.3
	C22.1,25,21,25.2,19.9,25.3"/>
    <path fill="currentColor" d="M19.3,11.3L19.3,11.3l-1.6,5.5 M17.7,16.8c-0.9-0.7-1.9-1-3-1.1l0,0c-1,0-2.1,0.3-3,0.7l1.5-5.5
	c0.9-0.4,1.9-0.6,2.9-0.7l0,0c0.4,0,0.9,0,1.3,0.1c0.7,0.2,1.3,0.5,1.9,0.9"/>
    <path fill="currentColor" d="M22.1,18.5c-1.2,0-2.4-0.4-3.4-1.1l0,0l1.6-5.5c1,0.7,2.1,1.1,3.4,1.1c1,0,2.1-0.3,3-0.7l-1.6,5.4l0,0
	C24.2,18.2,23.1,18.5,22.1,18.5"/>
</svg>
