<svg version="1.1" id="Layer_1" xmlns="http://www.w3.org/2000/svg" xmlns:xlink="http://www.w3.org/1999/xlink" x="0px" y="0px" viewBox="0 0 36 36" style="enable-background:new 0 0 36 36" xml:space="preserve">
    <path fill="none" stroke="currentColor" stroke-width="2" d="M18,35c9.4,0,17-7.6,17-17S27.4,1,18,1S1,8.6,1,18S8.6,35,18,35"/>
    <path fill="currentColor" d="M9.5,18c0,3.3,1.9,6.2,4.8,7.6l-4.1-11.1C9.8,15.6,9.5,16.8,9.5,18z M23.8,17.6c0-0.8-0.3-1.6-0.7-2.4
	c-0.5-0.6-0.7-1.3-0.8-2c0-0.8,0.6-1.5,1.4-1.5c0,0,0,0,0,0h0.1c-3.5-3.2-8.8-2.9-12,0.5c-0.3,0.3-0.6,0.7-0.9,1.1h0.6
	c0.9,0,2.3-0.1,2.3-0.1c0.2,0,0.4,0.1,0.4,0.3s-0.1,0.4-0.3,0.4c0,0-0.5,0.1-1,0.1l3.1,9.2l1.9-5.6L16.4,14c-0.5,0-0.9-0.1-0.9-0.1
	c-0.2,0-0.3-0.2-0.3-0.4s0.2-0.3,0.4-0.3c0,0,1.4,0.1,2.2,0.1s2.3-0.1,2.3-0.1c0.2,0,0.4,0.1,0.4,0.3c0,0.2-0.1,0.4-0.3,0.4
	c0,0-0.5,0.1-1,0.1l3.1,9.1l0.9-2.8C23.5,19.5,23.7,18.5,23.8,17.6L23.8,17.6z M18.2,18.7l-2.6,7.4c1.7,0.5,3.5,0.4,5.2-0.1
	c0,0,0-0.1-0.1-0.1L18.2,18.7z M25.5,13.9c0,0.3,0.1,0.6,0.1,0.9c0,1-0.2,2.1-0.6,3l-2.6,7.5C26.3,23,27.7,17.9,25.5,13.9L25.5,13.9
	z"/>
</svg>
