<svg version="1.1" id="Layer_1" xmlns="http://www.w3.org/2000/svg" xmlns:xlink="http://www.w3.org/1999/xlink" x="0px" y="0px" viewBox="0 0 36 36" style="enable-background:new 0 0 36 36" xml:space="preserve">
    <path fill="none" stroke="currentColor" stroke-width="2" d="M18,35c9.4,0,17-7.6,17-17S27.4,1,18,1S1,8.6,1,18S8.6,35,18,35"/>
    <path fill="currentColor" d="M23.1,15.4l0.4-0.1h1.2l0.2-0.3l0,0l0.5-0.7l0,0v-0.1h-6.6l0.3,1h1.9L17.8,18c-0.6-0.9-2.1-2.6-3.1-4.1H17v-0.8
	v-0.2l0,0v-0.1H9.4v1h2.3c1.6,1.6,3.1,3.4,4.4,5.3c0.1,1,0,1.9-0.1,2.9c-0.3,0.4-1.8,0.3-2.2,0.3L13.6,23c0.7,0,2.8,0,3.5,0
	c1.3,0,3.6,0,3.9,0v-0.8c-0.3-0.1-2.1,0-2.4-0.1c-0.1-1-0.1-2-0.1-3C18.9,18.4,22.7,15.5,23.1,15.4z"/>
    <path fill="currentColor" d="M24.2,21.1l1,0.1l1.2-4.6c-0.2,0-2-0.2-2.2-0.2L24.2,21.1z"/>
    <polygon fill="currentColor" points="24,21.8 24.1,22.9 24.6,23 25.1,23 25.3,21.9 24.7,21.9 "/>
</svg>
