<svg version="1.1" id="Layer_1" xmlns="http://www.w3.org/2000/svg" xmlns:xlink="http://www.w3.org/1999/xlink" x="0px" y="0px" viewBox="0 0 36.1 36.1" style="enable-background:new 0 0 36.1 36.1" xml:space="preserve">
    <path fill="none" stroke="currentColor" stroke-width="2" d="M18,35c9.4,0,17-7.6,17-17S27.4,1,18,1S1,8.6,1,18S8.6,35,18,35"/>
    <path fill="currentColor" d="M18.1,22.4c0-0.6-0.5-1-1.1-0.9c-0.3,0-0.5,0.1-0.7,0.3c-1.1,1.4-3.3,3.9-3.4,4.2c-0.3,1,1.2,1.5,2.2,1.9
	c0.7,0.3,1.5,0.5,2.3,0.5c0.3,0,0.5-0.2,0.6-0.5C18.1,27.6,18.1,22.6,18.1,22.4z"/>
    <path fill="currentColor" d="M17.6,6.3C17.5,6,17.3,5.8,17,5.7c-1-0.3-4.7,0.8-5.4,1.5c-0.2,0.2-0.3,0.5-0.2,0.8l4.6,7.6
	c1,1.5,2.2,1.1,2.1-0.6l0,0C18,13.8,17.6,6.7,17.6,6.3L17.6,6.3z"/>
    <path fill="currentColor" d="M15.6,20.1c0.5-0.2,0.8-0.7,0.6-1.3c-0.1-0.3-0.3-0.5-0.6-0.6c-2-0.8-4.8-2-5-2c-0.8,0-1,1.1-1.1,2
	c-0.1,0.7-0.1,1.4,0,2.1c0.1,0.7,0.2,1.4,0.9,1.4C10.7,21.7,15.5,20.1,15.6,20.1L15.6,20.1z"/>
    <path fill="currentColor" d="M26,17.1c0.2-0.2,0.4-0.5,0.3-0.8c-0.5-1.5-1.3-2.8-2.5-3.8c-0.2-0.2-0.6-0.2-0.8,0c-0.3,0.2-3.1,4.2-3.2,4.4
	c-0.3,0.5-0.2,1.1,0.3,1.4c0.2,0.1,0.5,0.2,0.7,0.2l0,0C21.1,18.3,25.8,17.2,26,17.1z"/>
    <path fill="currentColor" d="M21.1,20.4c-0.5-0.2-1.1,0.1-1.3,0.7c-0.1,0.3,0,0.6,0.1,0.8c0.1,0.2,2.6,4.4,2.9,4.6c0.2,0.2,0.5,0.2,0.8,0.1
	c1.3-0.9,2.3-2.2,2.8-3.6c0.1-0.3,0-0.6-0.3-0.8C26,22,21.1,20.4,21.1,20.4L21.1,20.4z"/>
</svg>
