<svg xmlns="http://www.w3.org/2000/svg" viewBox="0 0 34.02 34.02">
    <path fill="#ffffff" d="M17,34A17,17,0,1,0,0,17,17,17,0,0,0,17,34"></path>
    <path fill="#282828" d="M11.06,12.16v2.25H8.5v5.16h4.22V12.16Zm0,6H10.2V15.85h.87Z"></path>
    <path fill="#282828" d="M16.19,14.44V19.6h2.56v.81H16.16v1.45h4.25V14.44Zm2.56,3.73h-.87V15.82h.87Z"></path>
    <path fill="#282828" d="M21.29,14.44V19.6h2.56v.81H21.26v1.45h4.25V14.44Zm2.56,3.73H23V15.82h.87Z"></path>
    <rect fill="#282828" x="13.58" y="14.41" width="1.72" height="5.19"></rect>
    <rect fill="#282828" x="13.58" y="12.26" width="1.72" height="1.41"></rect>
</svg>