<svg version="1.1" xmlns="http://www.w3.org/2000/svg" xmlns:xlink="http://www.w3.org/1999/xlink" x="0px" y="0px"
	 viewBox="0 0 34 34" style="enable-background:new 0 0 34 34;" xml:space="preserve">
<path fill="#FFFFFF" d="M17,34c9.4,0,17-7.6,17-17S26.4,0,17,0S0,7.6,0,17S7.6,34,17,34"/>
<path fill="#ECCC1C" d="M12.5,11.5c-0.4,1-0.3,2.8-0.2,4c-0.5,0.3-1.1-0.2-1.4-0.2c-0.4,0-0.8,0.2-0.9,0.6c0,0.3,0.1,0.6,0.9,1
	c0.3,0.1,1.1,0.3,1.2,0.7c0.2,0.6-1.3,3.3-3.6,3.6c-0.2,0-0.3,0.2-0.3,0.4c0,0.7,1.7,1,2.4,1.1c0.1,0.1,0.1,0.5,0.2,0.8
	c0,0.1,0.2,0.3,0.4,0.3c0.4,0,1-0.3,2-0.1c1,0.2,2,1.6,3.9,1.6c1.7,0,2.8-1.5,3.8-1.6c0.6-0.1,1.1-0.1,1.6,0
	c0.4,0.1,0.7,0.1,0.8-0.3c0.1-0.3,0.2-0.7,0.2-0.8c0.7-0.1,2.3-0.4,2.4-1.1c0-0.2-0.1-0.4-0.3-0.4c-2.3-0.4-3.9-3-3.6-3.6
	c0.2-0.4,0.9-0.6,1.2-0.7c0.6-0.2,0.9-0.5,0.9-0.9c0-0.4-0.5-0.7-0.9-0.7c-0.4,0-0.9,0.5-1.4,0.2c0.1-1.3,0.2-3-0.2-4
	c-0.8-1.9-2.7-2.8-4.6-2.8C15.1,8.7,13.3,9.6,12.5,11.5z"/>
</svg>
