<svg xmlns="http://www.w3.org/2000/svg" viewBox="0 0 34.02 34.02">
<path fill="#ffffff" d="M17,34A17,17,0,1,0,0,17,17,17,0,0,0,17,34"/>
<path fill="#f44336" d="M17.07,22.35a1,1,0,0,0-1.73-.63c-1.14,1.38-3.29,3.89-3.42,4.2-.33.95,1.21,1.55,2.18,1.91a5,5,0,0,0,2.26.48.77.77,0,0,0,.63-.5C17.08,27.58,17.07,22.56,17.07,22.35Z"/>
<path fill="#f44336" d="M16.56,6.29A.79.79,0,0,0,16,5.72c-1-.25-4.69.79-5.38,1.54a.79.79,0,0,0-.23.78L15,15.59c1,1.53,2.17,1.07,2.09-.65h0c-.06-1.13-.52-8.28-.57-8.65Z"/>
<path fill="#f44336" d="M14.57,20.06a1,1,0,0,0,.06-1.88c-2-.83-4.77-2-5-2-.83,0-1,1.14-1.07,2a10.7,10.7,0,0,0,0,2.11c.07.67.21,1.36.88,1.4.3,0,5.08-1.59,5.13-1.61Z"/>
<path fill="#f44336" d="M25,17.06a.86.86,0,0,0,.33-.79,7.88,7.88,0,0,0-2.54-3.81.78.78,0,0,0-.81,0c-.31.21-3.06,4.19-3.22,4.36a1,1,0,0,0,1,1.55v0C20.14,18.32,24.79,17.22,25,17.06Z"/>
<path fill="#f44336" d="M20.14,20.39A1,1,0,0,0,19,21.88c.14.24,2.65,4.44,2.87,4.6a.72.72,0,0,0,.78.09,7.71,7.71,0,0,0,2.83-3.64.76.76,0,0,0-.27-.77c-.19-.17-5.08-1.77-5.08-1.77Z"/>
</svg>