<?xml version="1.0" encoding="utf-8"?>
<!-- Generator: Adobe Illustrator 26.2.1, SVG Export Plug-In . SVG Version: 6.00 Build 0)  -->
<svg version="1.1" id="Layer_1" xmlns="http://www.w3.org/2000/svg" xmlns:xlink="http://www.w3.org/1999/xlink" x="0px" y="0px"
	 viewBox="0 0 34 34" style="enable-background:new 0 0 34 34;" xml:space="preserve">
<style type="text/css">
	.st0{fill:#ECCC09;}
	.st1{fill:#FFFFFF;stroke:#000000;stroke-width:0.25;stroke-linecap:round;stroke-linejoin:round;stroke-miterlimit:10;}
</style>
<rect x="0" class="st0" width="34" height="34"/>
<path class="st1" d="M12.7,11.8c-0.4,0.9-0.3,2.6-0.2,3.8c-0.5,0.3-1-0.2-1.4-0.2c-0.3,0-0.8,0.2-0.8,0.6c0,0.2,0.1,0.6,0.8,0.9
	c0.3,0.1,1,0.3,1.2,0.7c0.2,0.6-1.2,3.1-3.5,3.5c-0.2,0-0.3,0.2-0.3,0.4c0,0.7,1.6,1,2.3,1.1c0.1,0.1,0.1,0.5,0.2,0.8
	c0,0.1,0.1,0.3,0.4,0.3c0.3,0,0.9-0.3,1.9-0.1c1,0.2,1.9,1.6,3.7,1.6c1.7,0,2.6-1.4,3.6-1.6c0.5-0.1,1-0.1,1.5,0
	c0.4,0.1,0.7,0.1,0.8-0.2c0.1-0.3,0.1-0.7,0.2-0.8c0.7-0.1,2.2-0.4,2.3-1.1c0-0.2-0.1-0.3-0.3-0.4c-2.2-0.4-3.7-2.9-3.5-3.5
	c0.2-0.4,0.9-0.5,1.2-0.7c0.6-0.2,0.9-0.5,0.9-0.8c0-0.4-0.5-0.7-0.9-0.7c-0.4,0-0.9,0.4-1.3,0.2c0.1-1.2,0.2-2.9-0.2-3.8
	C20.6,10,18.8,9.1,17,9.1C15.2,9.1,13.5,10,12.7,11.8z"/>
</svg>
